<svg width="14" height="4" viewBox="0 0 14 4" fill="none" xmlns="http://www.w3.org/2000/svg">
<path d="M1.70092 3.33708C0.972918 3.33708 0.440918 2.76309 0.440918 1.99309C0.440918 1.22309 0.972918 0.663086 1.70092 0.663086C2.42892 0.663086 2.98892 1.22309 2.98892 1.99309C2.98892 2.76309 2.42892 3.33708 1.70092 3.33708ZM6.99292 3.33708C6.25092 3.33708 5.70492 2.76309 5.70492 1.99309C5.70492 1.22309 6.25092 0.663086 6.99292 0.663086C7.72092 0.663086 8.28092 1.22309 8.28092 1.99309C8.28092 2.76309 7.72092 3.33708 6.99292 3.33708ZM12.2709 3.33708C11.5289 3.33708 10.9969 2.76309 10.9969 1.99309C10.9969 1.22309 11.5289 0.663086 12.2709 0.663086C12.9989 0.663086 13.5589 1.22309 13.5589 1.99309C13.5589 2.76309 12.9989 3.33708 12.2709 3.33708Z" fill="#1A1A1C"/>
</svg>
